<svg width="455" height="123" viewBox="0 0 455 123" fill="none" xmlns="http://www.w3.org/2000/svg">
<rect x="11" y="0.5" width="99" height="95" rx="8.5" fill="#FFFCF2"/>
<rect x="11" y="0.5" width="99" height="95" rx="8.5" stroke="#EAEAEA"/>
<g clip-path="url(#clip0_574_1379)">
<mask id="mask0_574_1379" style="mask-type:luminance" maskUnits="userSpaceOnUse" x="19" y="10" width="85" height="78">
<path d="M103.5 10H19.5V88H103.5V10Z" fill="white"/>
</mask>
<g mask="url(#mask0_574_1379)">
<path d="M64.2857 10H58.7143C38.7137 10 22.5 27.4609 22.5 49C22.5 70.5391 38.7137 88 58.7143 88H64.2857C84.2863 88 100.5 70.5391 100.5 49C100.5 27.4609 84.2863 10 64.2857 10Z" fill="white"/>
<path d="M61 81C78.9493 81 93.5 66.6731 93.5 49C93.5 31.3269 78.9493 17 61 17C43.0507 17 28.5 31.3269 28.5 49C28.5 66.6731 43.0507 81 61 81Z" fill="#E0E8E2"/>
<path d="M59.5 25H63.5C76.2025 25 86.5 35.9691 86.5 49.5C86.5 63.0309 76.2025 74 63.5 74H59.5C46.7975 74 36.5 63.0309 36.5 49.5C36.5 35.9691 46.7975 25 59.5 25Z" fill="#FDF8E5"/>
<path d="M71.5987 68C78.6408 64.5281 83.5 57.3708 83.5 49.3759C83.5 38.1572 74.0026 29 62.0574 29C61.2105 29 60.3614 29.0651 59.5 29.1442C59.5709 29.3279 59.6405 29.5098 59.7097 29.6902C60.1714 30.8948 60.6066 32.0302 61.1657 33.1725L61.1711 33.1837L61.176 33.1951C61.9132 34.9022 62.8643 36.6166 63.8197 38.1354C64.8867 39.7632 65.9472 41.2791 67.2166 42.7922L67.2216 42.7981L67.2264 42.8042C68.5369 44.4704 69.6263 46.2375 70.6033 48.1007L70.6102 48.1138L70.6163 48.1274C72.3556 51.9626 73.4562 56.1365 73.3476 60.3331C73.3463 62.9123 72.7195 65.6322 71.5987 68Z" fill="#E0E8E2" stroke="#3A643C"/>
<path d="M71.0518 60.4863L71.0505 60.4748C70.7016 56.8794 69.42 53.3645 67.6511 49.9216L67.645 49.9093C66.8348 48.2198 65.7891 46.72 64.4912 45.099C63.1667 43.4447 61.9562 41.6792 60.9851 39.803C60.0229 37.9441 59.1708 35.9629 58.6816 33.9678L58.6794 33.9586L58.6775 33.9494C58.3543 32.3769 58.1273 30.8039 57.9966 29.3037C55.9079 29.6112 53.98 30.2037 52.1289 30.893C53.1863 35.623 54.8528 39.4584 59.4172 44.6534C61.054 46.3729 64.0988 50.1541 65.928 54.8661C67.6708 59.3557 68.3267 64.7423 65.5406 69.979C67.1261 69.7736 68.7067 69.431 70.2106 69.0113C71.1796 66.2044 71.3911 63.3031 71.0518 60.4863Z" fill="#E0E8E2" stroke="#3A643C"/>
<path d="M50.4272 43.0933C50.1891 44.1155 50.1891 44.2177 49.5938 44.4222C50.9032 44.5244 53.8794 44.5244 55.07 43.0933C53.9985 43.2977 51.6176 43.7066 50.4272 43.0933Z" fill="white"/>
<path d="M49.2398 40.64C49.716 40.1289 52.5731 40.1289 54.0017 40.2311C52.9303 39.72 50.4303 39.9245 49.2398 40.0267C49.0017 40.4356 48.6446 41.1511 49.2398 40.64Z" fill="white"/>
<path d="M47.2279 56.5913L47.2369 56.5859L47.246 56.5808C47.2834 56.5603 47.286 56.5469 47.288 56.541C47.2946 56.5223 47.3032 56.4755 47.2904 56.3899C47.2705 56.2563 47.2109 56.1106 47.1518 56.0032C46.5286 55.7073 46.1713 55.2649 46.0859 54.7375C46.0377 54.4407 46.0837 54.1606 46.1743 53.9223C46.0992 53.8339 46.0386 53.7335 45.9933 53.6232C45.8834 53.3555 45.8821 53.0736 45.9191 52.837C45.9565 52.5975 46.0383 52.3692 46.1339 52.1785C46.2195 52.0079 46.33 51.8399 46.4565 51.714C46.4965 51.6566 46.5167 51.5769 46.4709 51.4513C46.4125 51.2912 46.2328 51.0368 45.7869 50.765L45.7807 50.7613L45.7747 50.7574C45.3188 50.4598 45.0415 50.085 45.0133 49.647C44.9866 49.2341 45.1928 48.9207 45.3727 48.7522C46.4412 47.6777 47.0944 46.983 49.2934 44.4022C49.0551 42.5997 49.2585 40.5554 49.608 38.725C49.9604 36.8795 50.469 35.2116 50.862 34.1612C50.8072 33.7363 50.7113 33.322 50.5992 32.8895C50.5656 32.7597 50.53 32.6266 50.4937 32.4907C50.4509 32.3305 50.407 32.1666 50.3642 32C43.8982 35.4528 39.5 41.9406 39.5 49.3218C39.5 60.4408 49.4348 70 61.6485 70H62.1814C62.2197 69.9352 62.2575 69.8664 62.2991 69.7903L62.304 69.7815C62.3598 69.6795 62.4232 69.5636 62.5 69.4429C62.3384 67.8122 61.313 65.4701 59.9311 63.4975C59.2215 62.4845 58.4373 61.5977 57.663 60.9753C56.8801 60.3461 56.1623 60.0307 55.5704 60.0493C51.8013 60.2518 50.5514 60.2537 48.7398 60.0468C47.6772 59.9254 47.0286 59.2694 46.7732 58.5359C46.649 58.1792 46.6171 57.8012 46.6804 57.4628C46.7427 57.1299 46.9099 56.7851 47.2279 56.5913Z" fill="#E0E8E2" stroke="#147A36"/>
<path d="M49.5938 46.4222C50.9032 46.5244 53.8794 46.5244 55.07 45.0933C53.9985 45.2977 51.6176 45.7066 50.4272 45.0933C50.1891 46.1155 50.1891 46.2177 49.5938 46.4222Z" fill="#6B8E70"/>
<path d="M49.2398 42.64C49.716 42.1289 52.5731 42.1289 54.0017 42.2311C52.9303 41.72 50.4303 41.9245 49.2398 42.0267C49.0017 42.4356 48.6446 43.1511 49.2398 42.64Z" fill="#3A643C"/>
</g>
</g>
<path d="M5.056 118.112C4.84267 118.112 4.672 118.059 4.544 117.952C4.416 117.845 4.30933 117.675 4.224 117.44L0.736 107.488C0.64 107.243 0.650667 107.035 0.768 106.864C0.896 106.693 1.104 106.608 1.392 106.608C1.59467 106.608 1.75467 106.656 1.872 106.752C1.98933 106.848 2.08533 107.008 2.16 107.232L5.376 116.672H4.8L8.096 107.264C8.18133 107.04 8.28267 106.875 8.4 106.768C8.51733 106.661 8.672 106.608 8.864 106.608C9.06667 106.608 9.22133 106.661 9.328 106.768C9.44533 106.875 9.54133 107.045 9.616 107.28L12.848 116.672H12.336L15.584 107.232C15.6587 107.019 15.7547 106.864 15.872 106.768C15.9893 106.661 16.1547 106.608 16.368 106.608C16.6133 106.608 16.7947 106.693 16.912 106.864C17.0293 107.035 17.0453 107.243 16.96 107.488L13.44 117.456C13.3653 117.68 13.264 117.845 13.136 117.952C13.008 118.059 12.8373 118.112 12.624 118.112C12.4 118.112 12.224 118.059 12.096 117.952C11.968 117.845 11.8613 117.675 11.776 117.44L8.656 108.48H9.008L5.872 117.456C5.78667 117.68 5.68 117.845 5.552 117.952C5.43467 118.059 5.26933 118.112 5.056 118.112ZM21.1831 118.144C20.4151 118.144 19.7485 117.979 19.1831 117.648C18.6178 117.317 18.1805 116.848 17.8711 116.24C17.5618 115.632 17.4071 114.917 17.4071 114.096C17.4071 113.477 17.4925 112.923 17.6631 112.432C17.8445 111.931 18.1005 111.504 18.4311 111.152C18.7618 110.8 19.1565 110.533 19.6151 110.352C20.0845 110.16 20.6071 110.064 21.1831 110.064C21.9511 110.064 22.6178 110.229 23.1831 110.56C23.7485 110.891 24.1858 111.36 24.4951 111.968C24.8045 112.565 24.9591 113.275 24.9591 114.096C24.9591 114.715 24.8685 115.275 24.6871 115.776C24.5165 116.277 24.2658 116.704 23.9351 117.056C23.6045 117.408 23.2045 117.68 22.7351 117.872C22.2765 118.053 21.7591 118.144 21.1831 118.144ZM21.1831 116.992C21.6525 116.992 22.0578 116.88 22.3991 116.656C22.7511 116.432 23.0178 116.107 23.1991 115.68C23.3911 115.253 23.4871 114.725 23.4871 114.096C23.4871 113.157 23.2791 112.443 22.8631 111.952C22.4471 111.461 21.8871 111.216 21.1831 111.216C20.7245 111.216 20.3191 111.328 19.9671 111.552C19.6258 111.765 19.3591 112.085 19.1671 112.512C18.9751 112.939 18.8791 113.467 18.8791 114.096C18.8791 115.035 19.0871 115.755 19.5031 116.256C19.9298 116.747 20.4898 116.992 21.1831 116.992ZM27.5763 118.112C27.3523 118.112 27.1763 118.048 27.0483 117.92C26.9203 117.792 26.8563 117.605 26.8563 117.36V110.832C26.8563 110.587 26.9203 110.405 27.0483 110.288C27.1763 110.16 27.3523 110.096 27.5763 110.096C27.8003 110.096 27.9709 110.16 28.0883 110.288C28.2163 110.405 28.2803 110.587 28.2803 110.832V112.192L28.1043 111.904C28.3069 111.317 28.6323 110.864 29.0803 110.544C29.5389 110.224 30.0829 110.064 30.7123 110.064C31.3736 110.064 31.9069 110.224 32.3123 110.544C32.7176 110.853 32.9896 111.328 33.1283 111.968H32.9043C33.0963 111.381 33.4376 110.917 33.9283 110.576C34.4296 110.235 35.0109 110.064 35.6723 110.064C36.2589 110.064 36.7389 110.181 37.1123 110.416C37.4963 110.64 37.7843 110.981 37.9763 111.44C38.1683 111.888 38.2643 112.464 38.2643 113.168V117.36C38.2643 117.605 38.2003 117.792 38.0723 117.92C37.9443 118.048 37.7683 118.112 37.5443 118.112C37.3096 118.112 37.1283 118.048 37.0003 117.92C36.8723 117.792 36.8083 117.605 36.8083 117.36V113.232C36.8083 112.549 36.6909 112.048 36.4563 111.728C36.2216 111.408 35.8269 111.248 35.2723 111.248C34.6643 111.248 34.1789 111.461 33.8163 111.888C33.4643 112.304 33.2883 112.88 33.2883 113.616V117.36C33.2883 117.605 33.2243 117.792 33.0963 117.92C32.9789 118.048 32.8029 118.112 32.5683 118.112C32.3336 118.112 32.1523 118.048 32.0243 117.92C31.8963 117.792 31.8323 117.605 31.8323 117.36V113.232C31.8323 112.549 31.7149 112.048 31.4803 111.728C31.2456 111.408 30.8509 111.248 30.2963 111.248C29.6883 111.248 29.2029 111.461 28.8403 111.888C28.4883 112.304 28.3123 112.88 28.3123 113.616V117.36C28.3123 117.861 28.0669 118.112 27.5763 118.112ZM44.2055 118.144C43.3628 118.144 42.6375 117.984 42.0295 117.664C41.4322 117.333 40.9682 116.869 40.6375 116.272C40.3068 115.664 40.1415 114.949 40.1415 114.128C40.1415 113.317 40.3015 112.608 40.6215 112C40.9522 111.392 41.4002 110.917 41.9655 110.576C42.5415 110.235 43.1975 110.064 43.9335 110.064C44.4562 110.064 44.9255 110.155 45.3415 110.336C45.7682 110.507 46.1308 110.757 46.4295 111.088C46.7282 111.419 46.9522 111.824 47.1015 112.304C47.2615 112.773 47.3415 113.307 47.3415 113.904C47.3415 114.075 47.2882 114.208 47.1815 114.304C47.0855 114.389 46.9415 114.432 46.7495 114.432H41.2775V113.504H46.3815L46.1095 113.728C46.1095 113.173 46.0242 112.704 45.8535 112.32C45.6935 111.925 45.4535 111.627 45.1335 111.424C44.8242 111.221 44.4348 111.12 43.9655 111.12C43.4535 111.12 43.0162 111.243 42.6535 111.488C42.2908 111.723 42.0135 112.059 41.8215 112.496C41.6295 112.923 41.5335 113.419 41.5335 113.984V114.08C41.5335 115.04 41.7628 115.765 42.2215 116.256C42.6802 116.747 43.3415 116.992 44.2055 116.992C44.5468 116.992 44.8935 116.949 45.2455 116.864C45.6082 116.779 45.9548 116.624 46.2855 116.4C46.4455 116.304 46.5895 116.261 46.7175 116.272C46.8562 116.272 46.9682 116.315 47.0535 116.4C47.1388 116.475 47.1922 116.571 47.2135 116.688C47.2348 116.795 47.2188 116.912 47.1655 117.04C47.1122 117.168 47.0108 117.28 46.8615 117.376C46.5095 117.621 46.0882 117.813 45.5975 117.952C45.1175 118.08 44.6535 118.144 44.2055 118.144ZM49.8724 118.112C49.6484 118.112 49.4724 118.048 49.3444 117.92C49.2164 117.792 49.1524 117.605 49.1524 117.36V110.832C49.1524 110.587 49.2164 110.405 49.3444 110.288C49.4724 110.16 49.6484 110.096 49.8724 110.096C50.0964 110.096 50.267 110.16 50.3844 110.288C50.5124 110.405 50.5764 110.587 50.5764 110.832V112.144L50.4004 111.904C50.6244 111.296 50.987 110.837 51.4884 110.528C52.0004 110.219 52.5817 110.064 53.2324 110.064C53.8617 110.064 54.379 110.176 54.7844 110.4C55.1897 110.624 55.4937 110.965 55.6964 111.424C55.899 111.883 56.0004 112.464 56.0004 113.168V117.36C56.0004 117.605 55.9364 117.792 55.8084 117.92C55.691 118.048 55.515 118.112 55.2804 118.112C55.0457 118.112 54.8644 118.048 54.7364 117.92C54.6084 117.792 54.5444 117.605 54.5444 117.36V113.248C54.5444 112.555 54.411 112.048 54.1444 111.728C53.8777 111.408 53.451 111.248 52.8644 111.248C52.1817 111.248 51.6324 111.461 51.2164 111.888C50.811 112.304 50.6084 112.869 50.6084 113.584V117.36C50.6084 117.861 50.363 118.112 49.8724 118.112ZM58.8758 110.048C58.7691 110.187 58.6518 110.267 58.5238 110.288C58.4064 110.309 58.2998 110.288 58.2038 110.224C58.1184 110.16 58.0704 110.064 58.0598 109.936C58.0491 109.808 58.1024 109.669 58.2198 109.52C58.4011 109.296 58.5238 109.067 58.5878 108.832C58.6624 108.587 58.6998 108.368 58.6998 108.176L58.7638 108.544C58.4651 108.544 58.2198 108.459 58.0278 108.288C57.8464 108.117 57.7558 107.888 57.7558 107.6C57.7558 107.323 57.8411 107.099 58.0118 106.928C58.1824 106.747 58.4118 106.656 58.6998 106.656C58.9878 106.656 59.2171 106.757 59.3878 106.96C59.5691 107.152 59.6598 107.44 59.6598 107.824C59.6598 108.048 59.6331 108.288 59.5798 108.544C59.5371 108.789 59.4624 109.04 59.3558 109.296C59.2491 109.552 59.0891 109.803 58.8758 110.048ZM63.9654 118.144C63.4854 118.144 63 118.091 62.5094 117.984C62.0294 117.867 61.576 117.669 61.1494 117.392C61.032 117.317 60.9467 117.227 60.8934 117.12C60.8507 117.003 60.8347 116.891 60.8454 116.784C60.8667 116.667 60.9147 116.565 60.9894 116.48C61.064 116.395 61.1547 116.347 61.2614 116.336C61.3787 116.315 61.5014 116.341 61.6294 116.416C62.0454 116.651 62.4454 116.816 62.8294 116.912C63.224 117.008 63.6134 117.056 63.9974 117.056C64.584 117.056 65.0267 116.949 65.3254 116.736C65.624 116.523 65.7734 116.24 65.7734 115.888C65.7734 115.589 65.672 115.36 65.4694 115.2C65.2774 115.029 64.9734 114.901 64.5574 114.816L63.0694 114.512C62.408 114.363 61.9067 114.117 61.5654 113.776C61.2347 113.424 61.0694 112.976 61.0694 112.432C61.0694 111.952 61.1974 111.536 61.4534 111.184C61.72 110.821 62.088 110.544 62.5574 110.352C63.0267 110.16 63.5654 110.064 64.1734 110.064C64.6427 110.064 65.0854 110.128 65.5014 110.256C65.928 110.373 66.312 110.555 66.6534 110.8C66.7814 110.875 66.8614 110.971 66.8934 111.088C66.936 111.195 66.9414 111.307 66.9094 111.424C66.888 111.531 66.84 111.621 66.7654 111.696C66.6907 111.771 66.5947 111.819 66.4774 111.84C66.36 111.851 66.232 111.819 66.0934 111.744C65.784 111.531 65.464 111.381 65.1334 111.296C64.8134 111.2 64.4934 111.152 64.1734 111.152C63.5974 111.152 63.16 111.264 62.8614 111.488C62.5734 111.712 62.4294 112.005 62.4294 112.368C62.4294 112.645 62.5147 112.875 62.6854 113.056C62.8667 113.237 63.1494 113.371 63.5334 113.456L65.0214 113.76C65.7147 113.909 66.2374 114.149 66.5894 114.48C66.9414 114.8 67.1174 115.237 67.1174 115.792C67.1174 116.517 66.8294 117.093 66.2534 117.52C65.688 117.936 64.9254 118.144 63.9654 118.144ZM74.1116 118.112C73.877 118.112 73.6956 118.048 73.5676 117.92C73.4396 117.781 73.3756 117.589 73.3756 117.344V107.376C73.3756 107.12 73.4396 106.928 73.5676 106.8C73.6956 106.672 73.877 106.608 74.1116 106.608C74.357 106.608 74.5436 106.672 74.6716 106.8C74.7996 106.928 74.8636 107.12 74.8636 107.376V111.648H81.3916V107.376C81.3916 107.12 81.4556 106.928 81.5836 106.8C81.7116 106.672 81.8983 106.608 82.1436 106.608C82.3783 106.608 82.5596 106.672 82.6876 106.8C82.8156 106.928 82.8796 107.12 82.8796 107.376V117.344C82.8796 117.589 82.8156 117.781 82.6876 117.92C82.5596 118.048 82.3783 118.112 82.1436 118.112C81.8983 118.112 81.7116 118.048 81.5836 117.92C81.4556 117.781 81.3916 117.589 81.3916 117.344V112.912H74.8636V117.344C74.8636 117.589 74.7996 117.781 74.6716 117.92C74.5543 118.048 74.3676 118.112 74.1116 118.112ZM89.0024 118.144C88.1597 118.144 87.4344 117.984 86.8264 117.664C86.229 117.333 85.765 116.869 85.4344 116.272C85.1037 115.664 84.9384 114.949 84.9384 114.128C84.9384 113.317 85.0984 112.608 85.4184 112C85.749 111.392 86.197 110.917 86.7624 110.576C87.3384 110.235 87.9944 110.064 88.7304 110.064C89.253 110.064 89.7224 110.155 90.1384 110.336C90.565 110.507 90.9277 110.757 91.2264 111.088C91.525 111.419 91.749 111.824 91.8984 112.304C92.0584 112.773 92.1384 113.307 92.1384 113.904C92.1384 114.075 92.085 114.208 91.9784 114.304C91.8824 114.389 91.7384 114.432 91.5464 114.432H86.0744V113.504H91.1784L90.9064 113.728C90.9064 113.173 90.821 112.704 90.6504 112.32C90.4904 111.925 90.2504 111.627 89.9304 111.424C89.621 111.221 89.2317 111.12 88.7624 111.12C88.2504 111.12 87.813 111.243 87.4504 111.488C87.0877 111.723 86.8104 112.059 86.6184 112.496C86.4264 112.923 86.3304 113.419 86.3304 113.984V114.08C86.3304 115.04 86.5597 115.765 87.0184 116.256C87.477 116.747 88.1384 116.992 89.0024 116.992C89.3437 116.992 89.6904 116.949 90.0424 116.864C90.405 116.779 90.7517 116.624 91.0824 116.4C91.2424 116.304 91.3864 116.261 91.5144 116.272C91.653 116.272 91.765 116.315 91.8504 116.4C91.9357 116.475 91.989 116.571 92.0104 116.688C92.0317 116.795 92.0157 116.912 91.9624 117.04C91.909 117.168 91.8077 117.28 91.6584 117.376C91.3064 117.621 90.885 117.813 90.3944 117.952C89.9144 118.08 89.4504 118.144 89.0024 118.144ZM96.4293 118.144C95.8959 118.144 95.4106 118.037 94.9733 117.824C94.5466 117.611 94.2106 117.323 93.9653 116.96C93.7306 116.597 93.6133 116.192 93.6133 115.744C93.6133 115.168 93.7573 114.715 94.0453 114.384C94.3333 114.053 94.8186 113.819 95.5013 113.68C96.1839 113.531 97.1013 113.456 98.2533 113.456H99.0053V114.384H98.2853C97.4639 114.384 96.8133 114.421 96.3333 114.496C95.8639 114.571 95.5333 114.704 95.3413 114.896C95.1493 115.077 95.0533 115.333 95.0533 115.664C95.0533 116.08 95.1973 116.421 95.4853 116.688C95.7839 116.955 96.1893 117.088 96.7013 117.088C97.1066 117.088 97.4639 116.992 97.7733 116.8C98.0826 116.597 98.3279 116.331 98.5093 116C98.6906 115.659 98.7813 115.269 98.7813 114.832V112.992C98.7813 112.363 98.6533 111.909 98.3973 111.632C98.1413 111.344 97.7093 111.2 97.1013 111.2C96.7493 111.2 96.3866 111.248 96.0133 111.344C95.6399 111.44 95.2506 111.589 94.8453 111.792C94.6853 111.867 94.5466 111.893 94.4293 111.872C94.3119 111.84 94.2159 111.776 94.1413 111.68C94.0773 111.573 94.0399 111.461 94.0293 111.344C94.0293 111.216 94.0559 111.093 94.1093 110.976C94.1733 110.859 94.2799 110.773 94.4293 110.72C94.8986 110.485 95.3626 110.32 95.8213 110.224C96.2906 110.117 96.7279 110.064 97.1333 110.064C97.8266 110.064 98.3973 110.176 98.8453 110.4C99.2933 110.613 99.6293 110.949 99.8533 111.408C100.077 111.856 100.189 112.432 100.189 113.136V117.36C100.189 117.605 100.131 117.792 100.013 117.92C99.8959 118.048 99.7253 118.112 99.5013 118.112C99.2879 118.112 99.1173 118.048 98.9893 117.92C98.8719 117.792 98.8133 117.605 98.8133 117.36V116.224H98.9573C98.8719 116.619 98.7119 116.96 98.4773 117.248C98.2426 117.536 97.9493 117.76 97.5973 117.92C97.2559 118.069 96.8666 118.144 96.4293 118.144ZM104.929 118.144C104.129 118.144 103.521 117.909 103.105 117.44C102.689 116.96 102.481 116.272 102.481 115.376V107.344C102.481 107.099 102.545 106.917 102.673 106.8C102.801 106.672 102.977 106.608 103.201 106.608C103.435 106.608 103.617 106.672 103.745 106.8C103.873 106.917 103.937 107.099 103.937 107.344V115.264C103.937 115.819 104.049 116.235 104.273 116.512C104.507 116.779 104.838 116.912 105.265 116.912C105.361 116.912 105.446 116.912 105.521 116.912C105.595 116.901 105.67 116.891 105.745 116.88C105.862 116.869 105.947 116.901 106.001 116.976C106.054 117.051 106.081 117.2 106.081 117.424C106.081 117.627 106.033 117.787 105.937 117.904C105.851 118.011 105.707 118.08 105.505 118.112C105.409 118.123 105.313 118.128 105.217 118.128C105.121 118.139 105.025 118.144 104.929 118.144ZM110.369 118.144C109.739 118.144 109.211 118.032 108.785 117.808C108.369 117.584 108.054 117.259 107.841 116.832C107.638 116.405 107.537 115.883 107.537 115.264V111.328H106.513C106.321 111.328 106.171 111.28 106.065 111.184C105.958 111.077 105.905 110.939 105.905 110.768C105.905 110.587 105.958 110.448 106.065 110.352C106.171 110.256 106.321 110.208 106.513 110.208H107.537V108.464C107.537 108.219 107.601 108.037 107.729 107.92C107.857 107.792 108.038 107.728 108.273 107.728C108.507 107.728 108.683 107.792 108.801 107.92C108.929 108.037 108.993 108.219 108.993 108.464V110.208H110.929C111.131 110.208 111.286 110.256 111.393 110.352C111.499 110.448 111.553 110.587 111.553 110.768C111.553 110.939 111.499 111.077 111.393 111.184C111.286 111.28 111.131 111.328 110.929 111.328H108.993V115.136C108.993 115.723 109.115 116.165 109.361 116.464C109.606 116.763 110.011 116.912 110.577 116.912C110.779 116.912 110.95 116.896 111.089 116.864C111.227 116.821 111.35 116.8 111.457 116.8C111.553 116.789 111.633 116.821 111.697 116.896C111.771 116.971 111.809 117.109 111.809 117.312C111.809 117.461 111.782 117.6 111.729 117.728C111.686 117.845 111.595 117.925 111.457 117.968C111.329 118.011 111.158 118.048 110.945 118.08C110.731 118.123 110.539 118.144 110.369 118.144ZM113.716 118.112C113.492 118.112 113.316 118.048 113.188 117.92C113.06 117.792 112.996 117.605 112.996 117.36V107.344C112.996 107.099 113.06 106.917 113.188 106.8C113.316 106.672 113.492 106.608 113.716 106.608C113.951 106.608 114.132 106.672 114.26 106.8C114.388 106.917 114.452 107.099 114.452 107.344V111.904H114.244C114.468 111.296 114.831 110.837 115.332 110.528C115.844 110.219 116.425 110.064 117.076 110.064C117.705 110.064 118.223 110.181 118.628 110.416C119.033 110.64 119.337 110.981 119.54 111.44C119.743 111.899 119.844 112.475 119.844 113.168V117.36C119.844 117.605 119.78 117.792 119.652 117.92C119.535 118.048 119.359 118.112 119.124 118.112C118.889 118.112 118.708 118.048 118.58 117.92C118.452 117.792 118.388 117.605 118.388 117.36V113.248C118.388 112.555 118.255 112.048 117.988 111.728C117.721 111.408 117.295 111.248 116.708 111.248C116.025 111.248 115.476 111.461 115.06 111.888C114.655 112.304 114.452 112.869 114.452 113.584V117.36C114.452 117.861 114.207 118.112 113.716 118.112Z" fill="black"/>
<rect x="135.5" y="0.5" width="99" height="95" rx="8.5" fill="#FFFCF2"/>
<rect x="135.5" y="0.5" width="99" height="95" rx="8.5" stroke="#EAEAEA"/>
<path d="M187.786 9H182.214C162.214 9 146 26.4609 146 48C146 69.5391 162.214 87 182.214 87H187.786C207.786 87 224 69.5391 224 48C224 26.4609 207.786 9 187.786 9Z" fill="white"/>
<path d="M184.5 80C202.449 80 217 65.6731 217 48C217 30.3269 202.449 16 184.5 16C166.551 16 152 30.3269 152 48C152 65.6731 166.551 80 184.5 80Z" fill="#E0E8E2"/>
<path d="M197.642 41.262C197.111 51.3916 191.166 39.4546 183.833 39.4546C181.993 40.1937 171.124 51.9205 170.309 41.26C170.309 34.7823 176.5 29 183.833 29C191.166 29 197.642 34.7843 197.642 41.262Z" fill="#FDF8E5"/>
<path d="M195.438 67.3276C193.135 66.8986 191.461 65.7559 190.453 63.9366C189.001 61.3089 189.441 58.2273 189.635 57.7777C191.366 56.6226 192.653 55.1128 193.608 53.079C195.013 53.0501 196.403 52.1055 197.344 50.542C198.129 49.2343 198.546 47.4316 197.699 46.3631C197.529 46.1445 197.269 45.9176 196.881 45.7567C197.902 44.0654 198.11 42.6463 198.11 40.8229C198.11 34.3051 191.943 29 184.366 29C181.278 29 178.422 29.8828 176.123 31.3679C176.114 31.372 176.104 31.3761 176.095 31.3803C176.066 31.3968 176.043 31.4174 176.019 31.438C172.737 33.5996 170.618 37.003 170.618 40.8229C170.618 42.8154 170.665 43.9045 171.682 45.5175C171.204 45.6783 170.897 45.9382 170.703 46.1857C169.856 47.2583 170.268 49.0569 171.058 50.3646C172.013 51.9569 173.437 52.9058 174.865 52.9058C174.931 52.9058 174.993 52.8893 175.045 52.8645C176.071 55.0179 177.433 56.6721 179.098 57.7777C179.287 58.2232 179.732 61.3047 178.28 63.9366C177.272 65.7559 175.593 66.8986 173.295 67.3317C173.087 67.3688 172.954 67.5503 172.997 67.7319C173.035 67.8886 173.195 68 173.375 68C173.404 68 173.427 67.9959 173.456 67.9917C177.622 67.2121 179.178 64.4523 179.751 62.2742C180.115 60.8963 180.148 59.3618 180.011 58.3593C181.307 59.073 182.82 59.4566 184.366 59.4566C185.913 59.4566 187.431 59.0689 188.722 58.3593C188.58 59.3659 188.618 60.8963 188.982 62.2742C189.555 64.4523 191.111 67.2121 195.277 67.9917C195.306 67.9959 195.334 68 195.358 68C195.538 68 195.698 67.8927 195.736 67.7319C195.779 67.5421 195.646 67.3647 195.438 67.3276ZM197.335 40.8188C197.335 42.8649 197.013 44.1314 196.115 45.5628C195.954 45.5463 195.783 45.5381 195.594 45.5422C196.446 36.3305 189.668 34.0905 189.597 34.0699C189.394 34.008 189.176 34.0988 189.101 34.2721C189.03 34.4453 189.134 34.6392 189.332 34.7052C189.389 34.7217 194.019 36.2604 194.781 42.2626C192.09 36.4626 183.813 36.5121 183.714 36.5203C183.501 36.5244 183.331 36.6771 183.335 36.8627C183.34 37.0483 183.51 37.1927 183.723 37.1927C183.728 37.1927 183.728 37.1927 183.728 37.1927C184.121 37.1845 192.818 37.1391 194.54 43.8797C193.698 42.9598 192.468 42.1389 190.827 41.3963C189.891 40.9714 188.902 40.6167 187.947 40.2743C186.935 39.9113 185.889 39.5359 184.915 39.0821C181.245 37.3577 178.899 34.5361 176.832 31.7515C178.956 30.4438 181.557 29.6724 184.362 29.6724C191.517 29.6724 197.335 34.6722 197.335 40.8188ZM171.393 40.8188C171.393 37.3247 173.276 34.2019 176.213 32.1558C178.171 34.796 180.394 37.4691 183.766 39.2677C183.014 40.1216 179.571 43.7147 173.924 45.1874C174.222 42.5638 176.998 39.9608 177.026 39.936C177.173 39.7999 177.163 39.5854 177.012 39.4575C176.856 39.3296 176.61 39.3378 176.468 39.4699C176.336 39.5936 173.304 42.4276 173.134 45.3772C173.129 45.3772 173.124 45.3772 173.12 45.3813C172.888 45.3607 172.675 45.3566 172.481 45.3648C171.441 43.7972 171.393 42.8195 171.393 40.8188ZM179.628 57.2785C177.863 56.1193 176.454 54.3042 175.447 51.9033L174.794 49.9768C174.733 49.7994 174.52 49.6963 174.312 49.7499C174.108 49.8036 173.99 49.9892 174.051 50.1707L174.714 52.1178C174.728 52.155 174.747 52.188 174.761 52.2251C173.47 52.1673 172.363 51.0741 171.748 50.0511C170.944 48.7145 170.779 47.2831 171.346 46.5694C171.682 46.1445 172.273 45.9754 173.106 46.0661C173.115 46.0661 173.129 46.0661 173.139 46.0661C173.143 46.0661 173.148 46.0661 173.153 46.0661C173.158 46.0661 173.162 46.0661 173.167 46.0661C173.191 46.0661 173.214 46.062 173.238 46.0579C173.243 46.0579 173.243 46.0579 173.247 46.0579H173.252C173.257 46.0579 173.262 46.0579 173.266 46.0537C173.356 46.0331 173.446 46.0125 173.531 45.9919C173.583 45.9877 173.635 45.9754 173.683 45.9589C180.053 44.4614 183.747 40.4352 184.442 39.6184C184.485 39.639 184.527 39.6637 184.57 39.6844C185.577 40.1546 186.641 40.5383 187.668 40.9054C188.604 41.2437 189.578 41.5902 190.486 42.0027C192.813 43.0506 194.237 44.251 194.847 45.666C194.847 45.6701 194.852 45.6701 194.852 45.6742C194.857 45.6825 194.861 45.6948 194.866 45.7031C194.871 45.7113 194.875 45.7196 194.885 45.7278C194.89 45.7361 194.899 45.7443 194.904 45.7526C194.904 45.7526 194.904 45.7567 194.909 45.7567C194.875 45.8145 194.857 45.8846 194.866 45.9547C194.89 46.1404 195.084 46.2724 195.296 46.2476C196.129 46.161 196.72 46.3301 197.056 46.7509C197.623 47.4646 197.458 48.9001 196.654 50.2326C196.081 51.1855 195.084 52.1921 193.906 52.3777C194.015 52.1096 194.123 51.8332 194.223 51.5485L194.677 49.882C194.724 49.7004 194.596 49.5189 194.388 49.4777C194.18 49.4364 193.972 49.5478 193.925 49.7293L193.475 51.3753C192.525 54.0649 191.139 55.9419 189.091 57.2909C189.087 57.2909 189.087 57.295 189.082 57.295C187.758 58.2521 186.083 58.7801 184.362 58.7801C182.645 58.776 180.966 58.2479 179.628 57.2785Z" fill="#3A643C"/>
<path d="M181.14 46.9282C179.296 48.1658 177.049 46.9612 176.95 46.9117C176.77 46.8127 176.529 46.8581 176.415 47.0148C176.302 47.1716 176.354 47.382 176.534 47.481C176.609 47.5222 177.792 48.1617 179.239 48.1617C179.996 48.1617 180.823 47.9884 181.604 47.4645C181.774 47.3531 181.807 47.1386 181.675 46.9901C181.552 46.8457 181.31 46.8168 181.14 46.9282Z" fill="#3A643C"/>
<path d="M192.189 47.4809C192.369 47.3819 192.421 47.1756 192.307 47.0148C192.194 46.858 191.957 46.8085 191.773 46.9075C191.678 46.9611 189.432 48.1616 187.582 46.924C187.412 46.8085 187.171 46.8374 187.038 46.9859C186.906 47.1344 186.939 47.3448 187.109 47.4603C187.89 47.9842 188.717 48.1574 189.474 48.1574C190.931 48.1616 192.118 47.5222 192.189 47.4809Z" fill="#3A643C"/>
<path d="M168.966 46.3136C167.188 46.1693 167.046 43.6034 167.046 43.5786C167.036 43.3971 166.866 43.2568 166.658 43.2568C166.45 43.2568 166.28 43.4012 166.27 43.5786C166.27 43.6034 166.128 46.1693 164.35 46.3136C164.151 46.3301 164 46.4745 164 46.6478C164 46.821 164.151 46.9654 164.35 46.9819C165.826 47.1016 166.237 49.5726 166.27 50.5131C166.275 50.6946 166.45 50.839 166.658 50.839C166.866 50.839 167.036 50.6946 167.046 50.5131C167.079 49.5726 167.49 47.1016 168.966 46.9819C169.165 46.9654 169.316 46.821 169.316 46.6478C169.316 46.4745 169.165 46.3301 168.966 46.3136ZM166.658 48.4381C166.426 47.7616 166.053 47.0809 165.461 46.6767C166.053 46.3425 166.426 45.7939 166.658 45.2493C166.89 45.7939 167.263 46.3425 167.854 46.6767C167.263 47.0809 166.89 47.7616 166.658 48.4381Z" fill="#3A643C"/>
<path d="M204.65 35.7492C202.871 35.6048 202.729 33.0389 202.729 33.0142C202.72 32.8326 202.55 32.6924 202.342 32.6924C202.133 32.6924 201.963 32.8368 201.954 33.0142C201.954 33.0389 201.812 35.6048 200.034 35.7492C199.835 35.7657 199.684 35.9101 199.684 36.0833C199.684 36.2566 199.835 36.401 200.034 36.4175C201.509 36.5371 201.921 39.0081 201.954 39.9487C201.958 40.1302 202.133 40.2746 202.342 40.2746C202.55 40.2746 202.72 40.1302 202.729 39.9487C202.762 39.0081 203.174 36.5371 204.65 36.4175C204.848 36.401 204.999 36.2566 204.999 36.0833C204.999 35.9101 204.848 35.7657 204.65 35.7492ZM202.346 37.8737C202.114 37.1971 201.741 36.5165 201.15 36.1122C201.741 35.7781 202.114 35.2294 202.346 34.6849C202.578 35.2294 202.952 35.7781 203.543 36.1122C202.947 36.5165 202.578 37.1971 202.346 37.8737Z" fill="#3A643C"/>
<path d="M171.749 53.2478C170.945 53.1818 170.878 51.9896 170.878 51.9772C170.874 51.8576 170.76 51.7627 170.623 51.7627C170.486 51.7627 170.372 51.8576 170.368 51.9772C170.368 51.9896 170.292 53.1818 169.497 53.2478C169.365 53.2602 169.266 53.355 169.266 53.4705C169.266 53.5861 169.365 53.6851 169.497 53.6933C170.159 53.7469 170.349 54.935 170.368 55.3475C170.372 55.4672 170.486 55.5662 170.623 55.5662C170.76 55.5662 170.878 55.4713 170.878 55.3475C170.893 54.935 171.086 53.7469 171.749 53.6933C171.881 53.6809 171.98 53.5861 171.98 53.4705C171.98 53.355 171.881 53.2602 171.749 53.2478ZM170.623 54.1347C170.519 53.8872 170.368 53.6562 170.159 53.4912C170.368 53.3509 170.519 53.157 170.623 52.9549C170.727 53.157 170.878 53.3509 171.086 53.4912C170.878 53.6562 170.727 53.8872 170.623 54.1347Z" fill="#3A643C"/>
<path d="M155.556 117.144C155.055 117.144 154.569 117.101 154.1 117.016C153.631 116.941 153.188 116.824 152.772 116.664C152.356 116.504 151.983 116.307 151.652 116.072C151.513 115.976 151.412 115.859 151.348 115.72C151.295 115.581 151.279 115.448 151.3 115.32C151.332 115.181 151.391 115.064 151.476 114.968C151.572 114.872 151.684 114.813 151.812 114.792C151.94 114.771 152.079 114.813 152.228 114.92C152.719 115.251 153.231 115.491 153.764 115.64C154.308 115.789 154.905 115.864 155.556 115.864C156.495 115.864 157.183 115.693 157.62 115.352C158.068 115.011 158.292 114.563 158.292 114.008C158.292 113.549 158.132 113.192 157.812 112.936C157.492 112.669 156.953 112.461 156.196 112.312L154.5 111.96C153.497 111.747 152.745 111.395 152.244 110.904C151.753 110.413 151.508 109.757 151.508 108.936C151.508 108.435 151.609 107.981 151.812 107.576C152.015 107.16 152.303 106.803 152.676 106.504C153.049 106.205 153.487 105.976 153.988 105.816C154.5 105.656 155.065 105.576 155.684 105.576C156.345 105.576 156.964 105.667 157.54 105.848C158.127 106.029 158.655 106.296 159.124 106.648C159.252 106.744 159.337 106.861 159.38 107C159.423 107.128 159.428 107.256 159.396 107.384C159.375 107.512 159.316 107.619 159.22 107.704C159.135 107.789 159.023 107.837 158.884 107.848C158.756 107.859 158.612 107.811 158.452 107.704C158.025 107.405 157.588 107.192 157.14 107.064C156.692 106.925 156.201 106.856 155.668 106.856C155.124 106.856 154.649 106.941 154.244 107.112C153.849 107.283 153.54 107.523 153.316 107.832C153.103 108.131 152.996 108.483 152.996 108.888C152.996 109.379 153.145 109.763 153.444 110.04C153.743 110.317 154.244 110.531 154.948 110.68L156.628 111.016C157.695 111.24 158.484 111.587 158.996 112.056C159.519 112.515 159.78 113.133 159.78 113.912C159.78 114.403 159.679 114.845 159.476 115.24C159.284 115.635 159.007 115.976 158.644 116.264C158.281 116.541 157.839 116.76 157.316 116.92C156.793 117.069 156.207 117.144 155.556 117.144ZM162.279 117.112C162.055 117.112 161.879 117.048 161.751 116.92C161.623 116.792 161.559 116.605 161.559 116.36V106.344C161.559 106.099 161.623 105.917 161.751 105.8C161.879 105.672 162.055 105.608 162.279 105.608C162.513 105.608 162.695 105.672 162.823 105.8C162.951 105.917 163.015 106.099 163.015 106.344V112.648H163.047L166.183 109.592C166.343 109.432 166.487 109.309 166.615 109.224C166.743 109.139 166.908 109.096 167.111 109.096C167.313 109.096 167.468 109.149 167.575 109.256C167.681 109.352 167.735 109.48 167.735 109.64C167.735 109.789 167.66 109.939 167.511 110.088L164.183 113.32V112.6L167.815 116.104C167.964 116.253 168.033 116.408 168.023 116.568C168.023 116.728 167.964 116.861 167.847 116.968C167.74 117.064 167.596 117.112 167.415 117.112C167.201 117.112 167.025 117.069 166.887 116.984C166.759 116.899 166.609 116.765 166.439 116.584L163.047 113.384H163.015V116.36C163.015 116.861 162.769 117.112 162.279 117.112ZM170.404 117.08C170.18 117.08 170.004 117.011 169.876 116.872C169.748 116.733 169.684 116.541 169.684 116.296V109.912C169.684 109.656 169.748 109.464 169.876 109.336C170.004 109.197 170.18 109.128 170.404 109.128C170.638 109.128 170.82 109.197 170.948 109.336C171.076 109.464 171.14 109.656 171.14 109.912V116.296C171.14 116.541 171.076 116.733 170.948 116.872C170.83 117.011 170.649 117.08 170.404 117.08ZM170.404 107.4C170.116 107.4 169.886 107.325 169.716 107.176C169.556 107.016 169.476 106.808 169.476 106.552C169.476 106.275 169.556 106.067 169.716 105.928C169.886 105.779 170.116 105.704 170.404 105.704C170.713 105.704 170.942 105.779 171.092 105.928C171.252 106.067 171.332 106.275 171.332 106.552C171.332 106.808 171.252 107.016 171.092 107.176C170.942 107.325 170.713 107.4 170.404 107.4ZM174.201 117.112C173.977 117.112 173.801 117.048 173.673 116.92C173.545 116.792 173.481 116.605 173.481 116.36V109.832C173.481 109.587 173.545 109.405 173.673 109.288C173.801 109.16 173.977 109.096 174.201 109.096C174.425 109.096 174.595 109.16 174.713 109.288C174.841 109.405 174.905 109.587 174.905 109.832V111.144L174.729 110.904C174.953 110.296 175.315 109.837 175.817 109.528C176.329 109.219 176.91 109.064 177.561 109.064C178.19 109.064 178.707 109.176 179.113 109.4C179.518 109.624 179.822 109.965 180.025 110.424C180.227 110.883 180.329 111.464 180.329 112.168V116.36C180.329 116.605 180.265 116.792 180.137 116.92C180.019 117.048 179.843 117.112 179.609 117.112C179.374 117.112 179.193 117.048 179.065 116.92C178.937 116.792 178.873 116.605 178.873 116.36V112.248C178.873 111.555 178.739 111.048 178.473 110.728C178.206 110.408 177.779 110.248 177.193 110.248C176.51 110.248 175.961 110.461 175.545 110.888C175.139 111.304 174.937 111.869 174.937 112.584V116.36C174.937 116.861 174.691 117.112 174.201 117.112ZM191.961 117.144C190.841 117.144 189.881 116.909 189.081 116.44C188.281 115.971 187.662 115.304 187.225 114.44C186.798 113.565 186.585 112.536 186.585 111.352C186.585 110.467 186.707 109.672 186.953 108.968C187.198 108.253 187.55 107.645 188.009 107.144C188.467 106.632 189.027 106.243 189.689 105.976C190.361 105.709 191.118 105.576 191.961 105.576C192.601 105.576 193.214 105.667 193.801 105.848C194.398 106.029 194.91 106.285 195.337 106.616C195.507 106.733 195.619 106.867 195.673 107.016C195.726 107.165 195.731 107.309 195.689 107.448C195.657 107.576 195.587 107.688 195.481 107.784C195.385 107.869 195.262 107.917 195.113 107.928C194.963 107.928 194.803 107.869 194.633 107.752C194.259 107.464 193.849 107.256 193.401 107.128C192.963 106.989 192.494 106.92 191.993 106.92C191.171 106.92 190.473 107.096 189.897 107.448C189.331 107.789 188.899 108.291 188.601 108.952C188.313 109.603 188.169 110.403 188.169 111.352C188.169 112.291 188.313 113.096 188.601 113.768C188.899 114.429 189.331 114.936 189.897 115.288C190.473 115.629 191.171 115.8 191.993 115.8C192.494 115.8 192.969 115.731 193.417 115.592C193.875 115.453 194.297 115.24 194.681 114.952C194.851 114.835 195.006 114.781 195.145 114.792C195.294 114.803 195.417 114.851 195.513 114.936C195.609 115.011 195.673 115.117 195.705 115.256C195.747 115.384 195.747 115.517 195.705 115.656C195.662 115.795 195.566 115.917 195.417 116.024C194.979 116.397 194.457 116.68 193.849 116.872C193.251 117.053 192.622 117.144 191.961 117.144ZM199.82 117.144C199.287 117.144 198.801 117.037 198.364 116.824C197.937 116.611 197.601 116.323 197.356 115.96C197.121 115.597 197.004 115.192 197.004 114.744C197.004 114.168 197.148 113.715 197.436 113.384C197.724 113.053 198.209 112.819 198.892 112.68C199.575 112.531 200.492 112.456 201.644 112.456H202.396V113.384H201.676C200.855 113.384 200.204 113.421 199.724 113.496C199.255 113.571 198.924 113.704 198.732 113.896C198.54 114.077 198.444 114.333 198.444 114.664C198.444 115.08 198.588 115.421 198.876 115.688C199.175 115.955 199.58 116.088 200.092 116.088C200.497 116.088 200.855 115.992 201.164 115.8C201.473 115.597 201.719 115.331 201.9 115C202.081 114.659 202.172 114.269 202.172 113.832V111.992C202.172 111.363 202.044 110.909 201.788 110.632C201.532 110.344 201.1 110.2 200.492 110.2C200.14 110.2 199.777 110.248 199.404 110.344C199.031 110.44 198.641 110.589 198.236 110.792C198.076 110.867 197.937 110.893 197.82 110.872C197.703 110.84 197.607 110.776 197.532 110.68C197.468 110.573 197.431 110.461 197.42 110.344C197.42 110.216 197.447 110.093 197.5 109.976C197.564 109.859 197.671 109.773 197.82 109.72C198.289 109.485 198.753 109.32 199.212 109.224C199.681 109.117 200.119 109.064 200.524 109.064C201.217 109.064 201.788 109.176 202.236 109.4C202.684 109.613 203.02 109.949 203.244 110.408C203.468 110.856 203.58 111.432 203.58 112.136V116.36C203.58 116.605 203.521 116.792 203.404 116.92C203.287 117.048 203.116 117.112 202.892 117.112C202.679 117.112 202.508 117.048 202.38 116.92C202.263 116.792 202.204 116.605 202.204 116.36V115.224H202.348C202.263 115.619 202.103 115.96 201.868 116.248C201.633 116.536 201.34 116.76 200.988 116.92C200.647 117.069 200.257 117.144 199.82 117.144ZM206.623 117.112C206.378 117.112 206.191 117.048 206.063 116.92C205.935 116.792 205.871 116.605 205.871 116.36V109.832C205.871 109.587 205.935 109.405 206.063 109.288C206.191 109.16 206.367 109.096 206.591 109.096C206.815 109.096 206.986 109.16 207.103 109.288C207.231 109.405 207.295 109.587 207.295 109.832V111.064H207.135C207.306 110.424 207.626 109.939 208.095 109.608C208.564 109.277 209.156 109.091 209.871 109.048C210.042 109.037 210.18 109.08 210.287 109.176C210.394 109.261 210.452 109.411 210.463 109.624C210.474 109.827 210.426 109.992 210.319 110.12C210.212 110.237 210.047 110.307 209.823 110.328L209.535 110.344C208.831 110.419 208.287 110.648 207.903 111.032C207.53 111.416 207.343 111.944 207.343 112.616V116.36C207.343 116.605 207.279 116.792 207.151 116.92C207.034 117.048 206.858 117.112 206.623 117.112ZM215.206 117.144C214.363 117.144 213.638 116.984 213.03 116.664C212.432 116.333 211.968 115.869 211.638 115.272C211.307 114.664 211.142 113.949 211.142 113.128C211.142 112.317 211.302 111.608 211.622 111C211.952 110.392 212.4 109.917 212.966 109.576C213.542 109.235 214.198 109.064 214.934 109.064C215.456 109.064 215.926 109.155 216.342 109.336C216.768 109.507 217.131 109.757 217.43 110.088C217.728 110.419 217.952 110.824 218.102 111.304C218.262 111.773 218.342 112.307 218.342 112.904C218.342 113.075 218.288 113.208 218.182 113.304C218.086 113.389 217.942 113.432 217.75 113.432H212.278V112.504H217.382L217.11 112.728C217.11 112.173 217.024 111.704 216.854 111.32C216.694 110.925 216.454 110.627 216.134 110.424C215.824 110.221 215.435 110.12 214.966 110.12C214.454 110.12 214.016 110.243 213.654 110.488C213.291 110.723 213.014 111.059 212.822 111.496C212.63 111.923 212.534 112.419 212.534 112.984V113.08C212.534 114.04 212.763 114.765 213.222 115.256C213.68 115.747 214.342 115.992 215.206 115.992C215.547 115.992 215.894 115.949 216.246 115.864C216.608 115.779 216.955 115.624 217.286 115.4C217.446 115.304 217.59 115.261 217.718 115.272C217.856 115.272 217.968 115.315 218.054 115.4C218.139 115.475 218.192 115.571 218.214 115.688C218.235 115.795 218.219 115.912 218.166 116.04C218.112 116.168 218.011 116.28 217.862 116.376C217.51 116.621 217.088 116.813 216.598 116.952C216.118 117.08 215.654 117.144 215.206 117.144Z" fill="black"/>
<rect x="249.5" y="0.5" width="91" height="95" rx="8.5" fill="#FFFCF2"/>
<rect x="249.5" y="0.5" width="91" height="95" rx="8.5" stroke="#EAEAEA"/>
<path d="M297.786 9H292.214C272.214 9 256 26.4609 256 48C256 69.5391 272.214 87 292.214 87H297.786C317.786 87 334 69.5391 334 48C334 26.4609 317.786 9 297.786 9Z" fill="white"/>
<path d="M295.5 80C313.449 80 328 65.6731 328 48C328 30.3269 313.449 16 295.5 16C277.551 16 263 30.3269 263 48C263 65.6731 277.551 80 295.5 80Z" fill="#E0E8E2"/>
<path d="M311.816 39.095C311.814 38.7247 311.603 38.3666 311.273 38.1746L303.872 33.9877C303.57 33.8166 303.201 33.8168 302.891 33.9747C297.937 36.5012 291.862 36.5002 286.908 33.9715C286.602 33.8153 286.238 33.8131 285.937 33.9791L278.512 38.0745C278.181 38.2665 277.97 38.6247 277.969 38.995C277.929 50.1033 285.118 61.5201 294.892 66.1482C295.286 66.3659 295.146 66.3659 295.539 66.1482C305.497 60.6304 311.819 50.1682 311.816 39.095Z" fill="#FDF8E5" stroke="#3A643C" stroke-miterlimit="10"/>
<path opacity="0.5" d="M292.41 42.4192C292.277 42.7276 292.277 43.1185 292.277 43.9004V45.4979C292.277 45.5358 292.277 45.5548 292.265 45.5666C292.253 45.5784 292.233 45.5784 292.194 45.5784H290.535C289.723 45.5784 289.317 45.5784 288.997 45.7061C288.57 45.8765 288.231 46.2031 288.055 46.6143C287.922 46.9227 287.922 47.3136 287.922 48.0955C287.922 48.8773 287.922 49.2683 288.055 49.5767C288.231 49.9878 288.57 50.3145 288.997 50.4848C289.317 50.6125 289.723 50.6125 290.535 50.6125H292.194C292.233 50.6125 292.253 50.6125 292.265 50.6243C292.277 50.6361 292.277 50.6551 292.277 50.6931V52.2906C292.277 53.0724 292.277 53.4634 292.41 53.7718C292.587 54.1829 292.926 54.5096 293.353 54.6799C293.673 54.8076 294.079 54.8076 294.89 54.8076C295.702 54.8076 296.108 54.8076 296.428 54.6799C296.855 54.5096 297.194 54.1829 297.371 53.7718C297.504 53.4634 297.504 53.0724 297.504 52.2906V50.6931C297.504 50.6551 297.504 50.6361 297.516 50.6243C297.528 50.6125 297.548 50.6125 297.587 50.6125H299.246C300.057 50.6125 300.463 50.6125 300.783 50.4848C301.21 50.3145 301.549 49.9878 301.726 49.5767C301.859 49.2683 301.859 48.8773 301.859 48.0955C301.859 47.3136 301.859 46.9227 301.726 46.6143C301.549 46.2031 301.21 45.8765 300.783 45.7061C300.463 45.5784 300.057 45.5784 299.246 45.5784H297.587C297.548 45.5784 297.528 45.5784 297.516 45.5666C297.504 45.5548 297.504 45.5358 297.504 45.4979V43.9004C297.504 43.1185 297.504 42.7276 297.371 42.4192C297.194 42.008 296.855 41.6813 296.428 41.511C296.108 41.3833 295.702 41.3833 294.89 41.3833C294.079 41.3833 293.673 41.3833 293.353 41.511C292.926 41.6813 292.587 42.008 292.41 42.4192Z" fill="#E0E8E2" stroke="#3A643C"/>
<path opacity="0.5" d="M287.25 63.7708C288.976 63.7708 290.375 62.6049 290.375 61.1667C290.375 59.7284 288.976 58.5625 287.25 58.5625C285.524 58.5625 284.125 59.7284 284.125 61.1667C284.125 62.6049 285.524 63.7708 287.25 63.7708Z" stroke="#3A643C"/>
<path d="M287.25 58.25V58.4583" stroke="#3A643C" stroke-linecap="round"/>
<path d="M287.25 63.458V64.2913" stroke="#3A643C" stroke-linecap="round"/>
<path d="M284.617 59.6112C284.829 59.788 285.173 59.788 285.385 59.6112C285.597 59.4345 285.597 59.1478 285.385 58.971L284.617 59.6112ZM284.367 59.4029L284.617 59.6112L285.385 58.971L285.135 58.7627L284.367 59.4029Z" fill="#3A643C"/>
<path d="M288.741 59.2835C288.529 59.4603 288.529 59.747 288.741 59.9237C288.953 60.1005 289.297 60.1005 289.509 59.9237L288.741 59.2835ZM289.366 58.7627L288.741 59.2835L289.509 59.9237L290.134 59.4029L289.366 58.7627Z" fill="#3A643C"/>
<path d="M289.884 62.7215C289.672 62.5447 289.328 62.5447 289.116 62.7215C288.904 62.8983 288.904 63.1849 289.116 63.3617L289.884 62.7215ZM290.134 62.9298L289.884 62.7215L289.116 63.3617L289.366 63.57L290.134 62.9298Z" fill="#3A643C"/>
<path d="M283.5 61.1665H284" stroke="#3A643C" stroke-linecap="round"/>
<path d="M290 61.1665H291" stroke="#3A643C" stroke-linecap="round"/>
<path d="M285.76 63.0492C285.972 62.8724 285.972 62.5858 285.76 62.409C285.548 62.2322 285.204 62.2322 284.992 62.409L285.76 63.0492ZM285.135 63.57L285.76 63.0492L284.992 62.409L284.367 62.9298L285.135 63.57Z" fill="#3A643C"/>
<path d="M287.5 59.9167C287.5 60.1468 287.276 60.3333 287 60.3333C286.724 60.3333 286.5 60.1468 286.5 59.9167C286.5 59.6865 286.724 59.5 287 59.5C287.276 59.5 287.5 59.6865 287.5 59.9167Z" stroke="#3A643C"/>
<path d="M286.5 61.5832C286.5 61.8133 286.276 61.9998 286 61.9998C285.724 61.9998 285.5 61.8133 285.5 61.5832C285.5 61.3531 285.724 61.1665 286 61.1665C286.276 61.1665 286.5 61.3531 286.5 61.5832Z" stroke="#3A643C"/>
<path d="M289.25 61.9997C289.25 62.2298 289.026 62.4163 288.75 62.4163C288.474 62.4163 288.25 62.2298 288.25 61.9997C288.25 61.7696 288.474 61.583 288.75 61.583C289.026 61.583 289.25 61.7696 289.25 61.9997Z" stroke="#3A643C"/>
<path d="M287.25 57.2082C287.526 57.2082 287.75 57.3947 287.75 57.6248C287.75 57.855 287.526 58.0415 287.25 58.0415C286.974 58.0415 286.75 57.855 286.75 57.6248C286.75 57.3947 286.974 57.2082 287.25 57.2082Z" stroke="#3A643C"/>
<path d="M287.75 64.7081C287.75 64.478 287.526 64.2915 287.25 64.2915C286.974 64.2915 286.75 64.478 286.75 64.7081C286.75 64.9383 286.974 65.1248 287.25 65.1248C287.526 65.1248 287.75 64.9383 287.75 64.7081Z" stroke="#3A643C"/>
<path d="M284.25 58.2497C284.526 58.2497 284.75 58.4362 284.75 58.6663C284.75 58.8965 284.526 59.083 284.25 59.083C283.974 59.083 283.75 58.8965 283.75 58.6663C283.75 58.4362 283.974 58.2497 284.25 58.2497Z" stroke="#3A643C"/>
<path d="M290.25 58.2497C290.526 58.2497 290.75 58.4362 290.75 58.6663C290.75 58.8965 290.526 59.083 290.25 59.083C289.974 59.083 289.75 58.8965 289.75 58.6663C289.75 58.4362 289.974 58.2497 290.25 58.2497Z" stroke="#3A643C"/>
<path d="M290.25 63.2497C290.526 63.2497 290.75 63.4362 290.75 63.6663C290.75 63.8965 290.526 64.083 290.25 64.083C289.974 64.083 289.75 63.8965 289.75 63.6663C289.75 63.4362 289.974 63.2497 290.25 63.2497Z" stroke="#3A643C"/>
<path d="M283.5 61.1661C283.5 60.936 283.276 60.7495 283 60.7495C282.724 60.7495 282.5 60.936 282.5 61.1661C282.5 61.3963 282.724 61.5828 283 61.5828C283.276 61.5828 283.5 61.3963 283.5 61.1661Z" stroke="#3A643C"/>
<path d="M292 61.1661C292 60.936 291.776 60.7495 291.5 60.7495C291.224 60.7495 291 60.936 291 61.1661C291 61.3963 291.224 61.5828 291.5 61.5828C291.776 61.5828 292 61.3963 292 61.1661Z" stroke="#3A643C"/>
<path d="M284.25 63.2497C284.526 63.2497 284.75 63.4362 284.75 63.6663C284.75 63.8965 284.526 64.083 284.25 64.083C283.974 64.083 283.75 63.8965 283.75 63.6663C283.75 63.4362 283.974 63.2497 284.25 63.2497Z" stroke="#3A643C"/>
<path d="M263.096 117.112C262.861 117.112 262.68 117.048 262.552 116.92C262.424 116.781 262.36 116.589 262.36 116.344V106.376C262.36 106.12 262.424 105.928 262.552 105.8C262.68 105.672 262.861 105.608 263.096 105.608C263.341 105.608 263.528 105.672 263.656 105.8C263.784 105.928 263.848 106.12 263.848 106.376V116.344C263.848 116.589 263.784 116.781 263.656 116.92C263.539 117.048 263.352 117.112 263.096 117.112ZM267.108 117.112C266.884 117.112 266.708 117.048 266.58 116.92C266.452 116.792 266.388 116.605 266.388 116.36V109.832C266.388 109.587 266.452 109.405 266.58 109.288C266.708 109.16 266.884 109.096 267.108 109.096C267.332 109.096 267.502 109.16 267.62 109.288C267.748 109.405 267.812 109.587 267.812 109.832V111.192L267.636 110.904C267.838 110.317 268.164 109.864 268.612 109.544C269.07 109.224 269.614 109.064 270.244 109.064C270.905 109.064 271.438 109.224 271.844 109.544C272.249 109.853 272.521 110.328 272.66 110.968H272.436C272.628 110.381 272.969 109.917 273.46 109.576C273.961 109.235 274.542 109.064 275.204 109.064C275.79 109.064 276.27 109.181 276.644 109.416C277.028 109.64 277.316 109.981 277.508 110.44C277.7 110.888 277.796 111.464 277.796 112.168V116.36C277.796 116.605 277.732 116.792 277.604 116.92C277.476 117.048 277.3 117.112 277.076 117.112C276.841 117.112 276.66 117.048 276.532 116.92C276.404 116.792 276.34 116.605 276.34 116.36V112.232C276.34 111.549 276.222 111.048 275.988 110.728C275.753 110.408 275.358 110.248 274.804 110.248C274.196 110.248 273.71 110.461 273.348 110.888C272.996 111.304 272.82 111.88 272.82 112.616V116.36C272.82 116.605 272.756 116.792 272.628 116.92C272.51 117.048 272.334 117.112 272.1 117.112C271.865 117.112 271.684 117.048 271.556 116.92C271.428 116.792 271.364 116.605 271.364 116.36V112.232C271.364 111.549 271.246 111.048 271.012 110.728C270.777 110.408 270.382 110.248 269.828 110.248C269.22 110.248 268.734 110.461 268.372 110.888C268.02 111.304 267.844 111.88 267.844 112.616V116.36C267.844 116.861 267.598 117.112 267.108 117.112ZM280.889 117.112C280.665 117.112 280.489 117.048 280.361 116.92C280.233 116.792 280.169 116.605 280.169 116.36V109.832C280.169 109.587 280.233 109.405 280.361 109.288C280.489 109.16 280.665 109.096 280.889 109.096C281.113 109.096 281.283 109.16 281.401 109.288C281.529 109.405 281.593 109.587 281.593 109.832V111.192L281.417 110.904C281.619 110.317 281.945 109.864 282.393 109.544C282.851 109.224 283.395 109.064 284.025 109.064C284.686 109.064 285.219 109.224 285.625 109.544C286.03 109.853 286.302 110.328 286.441 110.968H286.217C286.409 110.381 286.75 109.917 287.241 109.576C287.742 109.235 288.323 109.064 288.985 109.064C289.571 109.064 290.051 109.181 290.425 109.416C290.809 109.64 291.097 109.981 291.289 110.44C291.481 110.888 291.577 111.464 291.577 112.168V116.36C291.577 116.605 291.513 116.792 291.385 116.92C291.257 117.048 291.081 117.112 290.857 117.112C290.622 117.112 290.441 117.048 290.313 116.92C290.185 116.792 290.121 116.605 290.121 116.36V112.232C290.121 111.549 290.003 111.048 289.769 110.728C289.534 110.408 289.139 110.248 288.585 110.248C287.977 110.248 287.491 110.461 287.129 110.888C286.777 111.304 286.601 111.88 286.601 112.616V116.36C286.601 116.605 286.537 116.792 286.409 116.92C286.291 117.048 286.115 117.112 285.881 117.112C285.646 117.112 285.465 117.048 285.337 116.92C285.209 116.792 285.145 116.605 285.145 116.36V112.232C285.145 111.549 285.027 111.048 284.793 110.728C284.558 110.408 284.163 110.248 283.609 110.248C283.001 110.248 282.515 110.461 282.153 110.888C281.801 111.304 281.625 111.88 281.625 112.616V116.36C281.625 116.861 281.379 117.112 280.889 117.112ZM296.702 117.144C296.073 117.144 295.545 117.027 295.118 116.792C294.702 116.557 294.393 116.211 294.19 115.752C293.987 115.293 293.886 114.717 293.886 114.024V109.832C293.886 109.587 293.945 109.405 294.062 109.288C294.19 109.16 294.371 109.096 294.606 109.096C294.841 109.096 295.022 109.16 295.15 109.288C295.278 109.405 295.342 109.587 295.342 109.832V114.024C295.342 114.685 295.475 115.176 295.742 115.496C296.009 115.805 296.43 115.96 297.006 115.96C297.646 115.96 298.163 115.747 298.558 115.32C298.963 114.893 299.166 114.328 299.166 113.624V109.832C299.166 109.587 299.225 109.405 299.342 109.288C299.47 109.16 299.651 109.096 299.886 109.096C300.121 109.096 300.302 109.16 300.43 109.288C300.558 109.405 300.622 109.587 300.622 109.832V116.36C300.622 116.861 300.387 117.112 299.918 117.112C299.683 117.112 299.502 117.048 299.374 116.92C299.257 116.792 299.198 116.605 299.198 116.36V114.968L299.406 115.24C299.193 115.859 298.846 116.333 298.366 116.664C297.897 116.984 297.342 117.144 296.702 117.144ZM303.685 117.112C303.461 117.112 303.285 117.048 303.157 116.92C303.029 116.792 302.965 116.605 302.965 116.36V109.832C302.965 109.587 303.029 109.405 303.157 109.288C303.285 109.16 303.461 109.096 303.685 109.096C303.909 109.096 304.08 109.16 304.197 109.288C304.325 109.405 304.389 109.587 304.389 109.832V111.144L304.213 110.904C304.437 110.296 304.8 109.837 305.301 109.528C305.813 109.219 306.394 109.064 307.045 109.064C307.674 109.064 308.192 109.176 308.597 109.4C309.002 109.624 309.306 109.965 309.509 110.424C309.712 110.883 309.813 111.464 309.813 112.168V116.36C309.813 116.605 309.749 116.792 309.621 116.92C309.504 117.048 309.328 117.112 309.093 117.112C308.858 117.112 308.677 117.048 308.549 116.92C308.421 116.792 308.357 116.605 308.357 116.36V112.248C308.357 111.555 308.224 111.048 307.957 110.728C307.69 110.408 307.264 110.248 306.677 110.248C305.994 110.248 305.445 110.461 305.029 110.888C304.624 111.304 304.421 111.869 304.421 112.584V116.36C304.421 116.861 304.176 117.112 303.685 117.112ZM312.841 117.08C312.617 117.08 312.441 117.011 312.313 116.872C312.185 116.733 312.121 116.541 312.121 116.296V109.912C312.121 109.656 312.185 109.464 312.313 109.336C312.441 109.197 312.617 109.128 312.841 109.128C313.076 109.128 313.257 109.197 313.385 109.336C313.513 109.464 313.577 109.656 313.577 109.912V116.296C313.577 116.541 313.513 116.733 313.385 116.872C313.268 117.011 313.086 117.08 312.841 117.08ZM312.841 107.4C312.553 107.4 312.324 107.325 312.153 107.176C311.993 107.016 311.913 106.808 311.913 106.552C311.913 106.275 311.993 106.067 312.153 105.928C312.324 105.779 312.553 105.704 312.841 105.704C313.15 105.704 313.38 105.779 313.529 105.928C313.689 106.067 313.769 106.275 313.769 106.552C313.769 106.808 313.689 107.016 313.529 107.176C313.38 107.325 313.15 107.4 312.841 107.4ZM319.15 117.144C318.521 117.144 317.993 117.032 317.566 116.808C317.15 116.584 316.835 116.259 316.622 115.832C316.419 115.405 316.318 114.883 316.318 114.264V110.328H315.294C315.102 110.328 314.953 110.28 314.846 110.184C314.739 110.077 314.686 109.939 314.686 109.768C314.686 109.587 314.739 109.448 314.846 109.352C314.953 109.256 315.102 109.208 315.294 109.208H316.318V107.464C316.318 107.219 316.382 107.037 316.51 106.92C316.638 106.792 316.819 106.728 317.054 106.728C317.289 106.728 317.465 106.792 317.582 106.92C317.71 107.037 317.774 107.219 317.774 107.464V109.208H319.71C319.913 109.208 320.067 109.256 320.174 109.352C320.281 109.448 320.334 109.587 320.334 109.768C320.334 109.939 320.281 110.077 320.174 110.184C320.067 110.28 319.913 110.328 319.71 110.328H317.774V114.136C317.774 114.723 317.897 115.165 318.142 115.464C318.387 115.763 318.793 115.912 319.358 115.912C319.561 115.912 319.731 115.896 319.87 115.864C320.009 115.821 320.131 115.8 320.238 115.8C320.334 115.789 320.414 115.821 320.478 115.896C320.553 115.971 320.59 116.109 320.59 116.312C320.59 116.461 320.563 116.6 320.51 116.728C320.467 116.845 320.377 116.925 320.238 116.968C320.11 117.011 319.939 117.048 319.726 117.08C319.513 117.123 319.321 117.144 319.15 117.144ZM323.554 119.992C323.383 119.992 323.239 119.944 323.122 119.848C323.015 119.763 322.951 119.64 322.93 119.48C322.919 119.331 322.951 119.171 323.026 119L324.114 116.536V117.144L321.09 110.104C321.015 109.923 320.988 109.757 321.01 109.608C321.031 109.459 321.1 109.336 321.218 109.24C321.346 109.144 321.516 109.096 321.73 109.096C321.911 109.096 322.055 109.139 322.162 109.224C322.268 109.309 322.37 109.459 322.466 109.672L324.978 115.864H324.53L327.09 109.672C327.175 109.459 327.276 109.309 327.394 109.224C327.511 109.139 327.671 109.096 327.874 109.096C328.055 109.096 328.194 109.144 328.29 109.24C328.396 109.336 328.46 109.459 328.482 109.608C328.503 109.757 328.471 109.917 328.386 110.088L324.354 119.416C324.247 119.64 324.135 119.789 324.018 119.864C323.911 119.949 323.756 119.992 323.554 119.992Z" fill="black"/>
<rect x="355.5" y="0.5" width="99" height="93" rx="8.5" fill="#FFFCF2"/>
<rect x="355.5" y="0.5" width="99" height="93" rx="8.5" stroke="#EAEAEA"/>
<g clip-path="url(#clip1_574_1379)">
<mask id="mask1_574_1379" style="mask-type:luminance" maskUnits="userSpaceOnUse" x="363" y="8" width="84" height="78">
<path d="M447 8H363V86H447V8Z" fill="white"/>
</mask>
<g mask="url(#mask1_574_1379)">
<path d="M407.786 8H402.214C382.214 8 366 25.4609 366 47C366 68.5391 382.214 86 402.214 86H407.786C427.786 86 444 68.5391 444 47C444 25.4609 427.786 8 407.786 8Z" fill="white"/>
<path d="M404.5 79C422.449 79 437 64.6731 437 47C437 29.3269 422.449 15 404.5 15C386.551 15 372 29.3269 372 47C372 64.6731 386.551 79 404.5 79Z" fill="#E0E8E2"/>
<path d="M397.692 58.7508C399.834 59.9423 402.969 60.9392 404.406 60.9392C408.846 60.9392 415.35 55.1277 415.847 48.5866C415.873 48.3921 415.795 48.1976 415.638 48.0517C411.667 43.8693 410.753 38.5927 410.57 37.3283C410.622 37.1338 410.544 37.0365 410.544 37.0365C410.492 36.9879 410.335 37.1095 410.283 37.1824C409.734 37.8633 409.16 38.3739 408.716 38.6657C408.507 38.7873 408.219 38.7143 408.141 38.4712C407.54 36.8663 405.398 35.7477 404.719 35.4073C404.588 35.3344 404.432 35.3344 404.275 35.383C402.812 35.8207 394.767 38.69 393.722 47.1763C393.487 48.9514 393.539 50.4833 393.748 51.7721C394.427 56.1246 398.163 56.6596 399.625 56.7082C399.834 56.7082 399.939 56.9514 399.782 57.0973C395.085 59.8936 387.531 54.4225 387.531 54.4225" fill="#FDF8E5"/>
<path d="M397.692 58.7508C399.834 59.9423 402.969 60.9392 404.406 60.9392C408.846 60.9392 415.35 55.1277 415.847 48.5866C415.873 48.3921 415.795 48.1976 415.638 48.0517C411.667 43.8693 410.753 38.5927 410.57 37.3283C410.622 37.1338 410.544 37.0365 410.544 37.0365C410.492 36.9879 410.335 37.1095 410.283 37.1824C409.734 37.8633 409.16 38.3739 408.716 38.6657C408.507 38.7873 408.219 38.7143 408.141 38.4712C407.54 36.8663 405.398 35.7477 404.719 35.4073C404.588 35.3344 404.432 35.3344 404.275 35.383C402.812 35.8207 394.767 38.69 393.722 47.1763C393.487 48.9514 393.539 50.4833 393.748 51.7721C394.427 56.1246 398.163 56.6596 399.625 56.7082C399.834 56.7082 399.939 56.9514 399.782 57.0973C395.085 59.8936 387.531 54.4225 387.531 54.4225" stroke="#3A643C" stroke-miterlimit="10" stroke-linecap="round" stroke-linejoin="round"/>
<path d="M411.485 43.9179C417.097 43.9179 421.647 39.683 421.647 34.4589C421.647 29.2349 417.097 25 411.485 25C405.874 25 401.324 29.2349 401.324 34.4589C401.324 39.683 405.874 43.9179 411.485 43.9179Z" stroke="#3A643C" stroke-miterlimit="10" stroke-linecap="round" stroke-linejoin="round"/>
<path d="M420.757 38.0864L419.488 40.128L429.731 45.6433L431 43.6017L420.757 38.0864Z" fill="#3A643C"/>
<path d="M391.094 56.9149C385.774 62.8724 384.187 56.9026 384.004 53.0121C383.822 49.1215 389.385 42.7507 390.587 40.3434C391.789 37.9604 390.065 32.9513 396.908 29.7659C402.629 27.0912 406.26 29.7902 407.279 30.7385C407.435 30.8844 407.697 30.8844 407.853 30.7385C410.779 27.8206 416.499 31.1276 416.917 36.8662C417.361 42.7993 419.503 44.4285 420.391 45.62C422.063 47.8814 426.19 55.6382 422.246 58.1428C418.276 60.6716 416.682 57.5349 416.682 57.5349C416.682 57.5349 414.357 59.9421 411.562 58.9695C411.118 58.8236 410.753 58.5561 410.465 58.2887" stroke="#3A643C" stroke-miterlimit="10" stroke-linecap="round" stroke-linejoin="round"/>
<path d="M399.312 59.5532V65" stroke="#3A643C" stroke-miterlimit="10" stroke-linecap="round" stroke-linejoin="round"/>
<path d="M409.266 59.1636V64.9995" stroke="#3A643C" stroke-miterlimit="10" stroke-linecap="round" stroke-linejoin="round"/>
</g>
</g>
<path d="M373.096 117.112C372.861 117.112 372.68 117.048 372.552 116.92C372.424 116.781 372.36 116.589 372.36 116.344V106.376C372.36 106.12 372.424 105.928 372.552 105.8C372.68 105.672 372.861 105.608 373.096 105.608C373.341 105.608 373.528 105.672 373.656 105.8C373.784 105.928 373.848 106.12 373.848 106.376V110.648H380.376V106.376C380.376 106.12 380.44 105.928 380.568 105.8C380.696 105.672 380.883 105.608 381.128 105.608C381.363 105.608 381.544 105.672 381.672 105.8C381.8 105.928 381.864 106.12 381.864 106.376V116.344C381.864 116.589 381.8 116.781 381.672 116.92C381.544 117.048 381.363 117.112 381.128 117.112C380.883 117.112 380.696 117.048 380.568 116.92C380.44 116.781 380.376 116.589 380.376 116.344V111.912H373.848V116.344C373.848 116.589 373.784 116.781 373.656 116.92C373.539 117.048 373.352 117.112 373.096 117.112ZM386.867 117.144C386.333 117.144 385.848 117.037 385.411 116.824C384.984 116.611 384.648 116.323 384.403 115.96C384.168 115.597 384.051 115.192 384.051 114.744C384.051 114.168 384.195 113.715 384.483 113.384C384.771 113.053 385.256 112.819 385.939 112.68C386.621 112.531 387.539 112.456 388.691 112.456H389.443V113.384H388.723C387.901 113.384 387.251 113.421 386.771 113.496C386.301 113.571 385.971 113.704 385.779 113.896C385.587 114.077 385.491 114.333 385.491 114.664C385.491 115.08 385.635 115.421 385.923 115.688C386.221 115.955 386.627 116.088 387.139 116.088C387.544 116.088 387.901 115.992 388.211 115.8C388.52 115.597 388.765 115.331 388.947 115C389.128 114.659 389.219 114.269 389.219 113.832V111.992C389.219 111.363 389.091 110.909 388.835 110.632C388.579 110.344 388.147 110.2 387.539 110.2C387.187 110.2 386.824 110.248 386.451 110.344C386.077 110.44 385.688 110.589 385.283 110.792C385.123 110.867 384.984 110.893 384.867 110.872C384.749 110.84 384.653 110.776 384.579 110.68C384.515 110.573 384.477 110.461 384.467 110.344C384.467 110.216 384.493 110.093 384.547 109.976C384.611 109.859 384.717 109.773 384.867 109.72C385.336 109.485 385.8 109.32 386.259 109.224C386.728 109.117 387.165 109.064 387.571 109.064C388.264 109.064 388.835 109.176 389.283 109.4C389.731 109.613 390.067 109.949 390.291 110.408C390.515 110.856 390.627 111.432 390.627 112.136V116.36C390.627 116.605 390.568 116.792 390.451 116.92C390.333 117.048 390.163 117.112 389.939 117.112C389.725 117.112 389.555 117.048 389.427 116.92C389.309 116.792 389.251 116.605 389.251 116.36V115.224H389.395C389.309 115.619 389.149 115.96 388.915 116.248C388.68 116.536 388.387 116.76 388.035 116.92C387.693 117.069 387.304 117.144 386.867 117.144ZM393.638 117.08C393.414 117.08 393.238 117.011 393.11 116.872C392.982 116.733 392.918 116.541 392.918 116.296V109.912C392.918 109.656 392.982 109.464 393.11 109.336C393.238 109.197 393.414 109.128 393.638 109.128C393.873 109.128 394.054 109.197 394.182 109.336C394.31 109.464 394.374 109.656 394.374 109.912V116.296C394.374 116.541 394.31 116.733 394.182 116.872C394.065 117.011 393.883 117.08 393.638 117.08ZM393.638 107.4C393.35 107.4 393.121 107.325 392.95 107.176C392.79 107.016 392.71 106.808 392.71 106.552C392.71 106.275 392.79 106.067 392.95 105.928C393.121 105.779 393.35 105.704 393.638 105.704C393.947 105.704 394.177 105.779 394.326 105.928C394.486 106.067 394.566 106.275 394.566 106.552C394.566 106.808 394.486 107.016 394.326 107.176C394.177 107.325 393.947 107.4 393.638 107.4ZM397.467 117.112C397.222 117.112 397.035 117.048 396.907 116.92C396.779 116.792 396.715 116.605 396.715 116.36V109.832C396.715 109.587 396.779 109.405 396.907 109.288C397.035 109.16 397.211 109.096 397.435 109.096C397.659 109.096 397.83 109.16 397.947 109.288C398.075 109.405 398.139 109.587 398.139 109.832V111.064H397.979C398.15 110.424 398.47 109.939 398.939 109.608C399.408 109.277 400 109.091 400.715 109.048C400.886 109.037 401.024 109.08 401.131 109.176C401.238 109.261 401.296 109.411 401.307 109.624C401.318 109.827 401.27 109.992 401.163 110.12C401.056 110.237 400.891 110.307 400.667 110.328L400.379 110.344C399.675 110.419 399.131 110.648 398.747 111.032C398.374 111.416 398.187 111.944 398.187 112.616V116.36C398.187 116.605 398.123 116.792 397.995 116.92C397.878 117.048 397.702 117.112 397.467 117.112ZM411.883 117.144C410.763 117.144 409.803 116.909 409.003 116.44C408.203 115.971 407.584 115.304 407.147 114.44C406.72 113.565 406.507 112.536 406.507 111.352C406.507 110.467 406.629 109.672 406.875 108.968C407.12 108.253 407.472 107.645 407.931 107.144C408.389 106.632 408.949 106.243 409.611 105.976C410.283 105.709 411.04 105.576 411.883 105.576C412.523 105.576 413.136 105.667 413.723 105.848C414.32 106.029 414.832 106.285 415.259 106.616C415.429 106.733 415.541 106.867 415.595 107.016C415.648 107.165 415.653 107.309 415.611 107.448C415.579 107.576 415.509 107.688 415.403 107.784C415.307 107.869 415.184 107.917 415.035 107.928C414.885 107.928 414.725 107.869 414.555 107.752C414.181 107.464 413.771 107.256 413.323 107.128C412.885 106.989 412.416 106.92 411.915 106.92C411.093 106.92 410.395 107.096 409.819 107.448C409.253 107.789 408.821 108.291 408.523 108.952C408.235 109.603 408.091 110.403 408.091 111.352C408.091 112.291 408.235 113.096 408.523 113.768C408.821 114.429 409.253 114.936 409.819 115.288C410.395 115.629 411.093 115.8 411.915 115.8C412.416 115.8 412.891 115.731 413.339 115.592C413.797 115.453 414.219 115.24 414.602 114.952C414.773 114.835 414.928 114.781 415.067 114.792C415.216 114.803 415.339 114.851 415.435 114.936C415.531 115.011 415.595 115.117 415.627 115.256C415.669 115.384 415.669 115.517 415.627 115.656C415.584 115.795 415.488 115.917 415.339 116.024C414.901 116.397 414.379 116.68 413.771 116.872C413.173 117.053 412.544 117.144 411.883 117.144ZM419.742 117.144C419.208 117.144 418.723 117.037 418.286 116.824C417.859 116.611 417.523 116.323 417.278 115.96C417.043 115.597 416.926 115.192 416.926 114.744C416.926 114.168 417.07 113.715 417.358 113.384C417.646 113.053 418.131 112.819 418.814 112.68C419.496 112.531 420.414 112.456 421.566 112.456H422.318V113.384H421.598C420.776 113.384 420.126 113.421 419.646 113.496C419.176 113.571 418.846 113.704 418.654 113.896C418.462 114.077 418.366 114.333 418.366 114.664C418.366 115.08 418.51 115.421 418.798 115.688C419.096 115.955 419.502 116.088 420.014 116.088C420.419 116.088 420.776 115.992 421.086 115.8C421.395 115.597 421.64 115.331 421.822 115C422.003 114.659 422.094 114.269 422.094 113.832V111.992C422.094 111.363 421.966 110.909 421.71 110.632C421.454 110.344 421.022 110.2 420.414 110.2C420.062 110.2 419.699 110.248 419.326 110.344C418.952 110.44 418.563 110.589 418.158 110.792C417.998 110.867 417.859 110.893 417.742 110.872C417.624 110.84 417.528 110.776 417.454 110.68C417.39 110.573 417.352 110.461 417.342 110.344C417.342 110.216 417.368 110.093 417.422 109.976C417.486 109.859 417.592 109.773 417.742 109.72C418.211 109.485 418.675 109.32 419.134 109.224C419.603 109.117 420.04 109.064 420.446 109.064C421.139 109.064 421.71 109.176 422.158 109.4C422.606 109.613 422.942 109.949 423.166 110.408C423.39 110.856 423.502 111.432 423.502 112.136V116.36C423.502 116.605 423.443 116.792 423.326 116.92C423.208 117.048 423.038 117.112 422.814 117.112C422.6 117.112 422.43 117.048 422.302 116.92C422.184 116.792 422.126 116.605 422.126 116.36V115.224H422.27C422.184 115.619 422.024 115.96 421.79 116.248C421.555 116.536 421.262 116.76 420.91 116.92C420.568 117.069 420.179 117.144 419.742 117.144ZM426.545 117.112C426.3 117.112 426.113 117.048 425.985 116.92C425.857 116.792 425.793 116.605 425.793 116.36V109.832C425.793 109.587 425.857 109.405 425.985 109.288C426.113 109.16 426.289 109.096 426.513 109.096C426.737 109.096 426.908 109.16 427.025 109.288C427.153 109.405 427.217 109.587 427.217 109.832V111.064H427.057C427.228 110.424 427.548 109.939 428.017 109.608C428.486 109.277 429.078 109.091 429.793 109.048C429.964 109.037 430.102 109.08 430.209 109.176C430.316 109.261 430.374 109.411 430.385 109.624C430.396 109.827 430.348 109.992 430.241 110.12C430.134 110.237 429.969 110.307 429.745 110.328L429.457 110.344C428.753 110.419 428.209 110.648 427.825 111.032C427.452 111.416 427.265 111.944 427.265 112.616V116.36C427.265 116.605 427.201 116.792 427.073 116.92C426.956 117.048 426.78 117.112 426.545 117.112ZM435.127 117.144C434.285 117.144 433.559 116.984 432.951 116.664C432.354 116.333 431.89 115.869 431.559 115.272C431.229 114.664 431.063 113.949 431.063 113.128C431.063 112.317 431.223 111.608 431.543 111C431.874 110.392 432.322 109.917 432.887 109.576C433.463 109.235 434.119 109.064 434.855 109.064C435.378 109.064 435.847 109.155 436.263 109.336C436.69 109.507 437.053 109.757 437.351 110.088C437.65 110.419 437.874 110.824 438.023 111.304C438.183 111.773 438.263 112.307 438.263 112.904C438.263 113.075 438.21 113.208 438.103 113.304C438.007 113.389 437.863 113.432 437.671 113.432H432.199V112.504H437.303L437.031 112.728C437.031 112.173 436.946 111.704 436.775 111.32C436.615 110.925 436.375 110.627 436.055 110.424C435.746 110.221 435.357 110.12 434.887 110.12C434.375 110.12 433.938 110.243 433.575 110.488C433.213 110.723 432.935 111.059 432.743 111.496C432.551 111.923 432.455 112.419 432.455 112.984V113.08C432.455 114.04 432.685 114.765 433.143 115.256C433.602 115.747 434.263 115.992 435.127 115.992C435.469 115.992 435.815 115.949 436.167 115.864C436.53 115.779 436.877 115.624 437.207 115.4C437.367 115.304 437.511 115.261 437.639 115.272C437.778 115.272 437.89 115.315 437.975 115.4C438.061 115.475 438.114 115.571 438.135 115.688C438.157 115.795 438.141 115.912 438.087 116.04C438.034 116.168 437.933 116.28 437.783 116.376C437.431 116.621 437.01 116.813 436.519 116.952C436.039 117.08 435.575 117.144 435.127 117.144Z" fill="black"/>
<defs>
<clipPath id="clip0_574_1379">
<rect width="84" height="78" fill="white" transform="translate(18.5 9)"/>
</clipPath>
<clipPath id="clip1_574_1379">
<rect width="84" height="78" fill="white" transform="translate(363 8)"/>
</clipPath>
</defs>
</svg>
